<svg width="1600" height="420" viewBox="0 0 1600 420" xmlns="http://www.w3.org/2000/svg">

<defs>

<linearGradient id="bg" x1="0%" y1="0%" x2="100%" y2="100%">
<stop offset="0%" stop-color="#0f172a"/>
<stop offset="50%" stop-color="#111827"/>
<stop offset="100%" stop-color="#1e293b"/>
</linearGradient>

<linearGradient id="line" x1="0%" y1="0%" x2="100%" y2="0%">
<stop offset="0%" stop-color="#38bdf8"/>
<stop offset="100%" stop-color="#8b5cf6"/>
</linearGradient>

<filter id="glow">
<feGaussianBlur stdDeviation="4" result="coloredBlur"/>
<feMerge>
<feMergeNode in="coloredBlur"/>
<feMergeNode in="SourceGraphic"/>
</feMerge>
</filter>

</defs>

<rect width="1600" height="420" fill="url(#bg)"/>

<!-- Grid -->

<g opacity="0.08">

<path d="M0 40H1600"/>
<path d="M0 80H1600"/>
<path d="M0 120H1600"/>
<path d="M0 160H1600"/>
<path d="M0 200H1600"/>
<path d="M0 240H1600"/>
<path d="M0 280H1600"/>
<path d="M0 320H1600"/>
<path d="M0 360H1600"/>

<path d="M100 0V420"/>
<path d="M200 0V420"/>
<path d="M300 0V420"/>
<path d="M400 0V420"/>
<path d="M500 0V420"/>
<path d="M600 0V420"/>
<path d="M700 0V420"/>
<path d="M800 0V420"/>
<path d="M900 0V420"/>
<path d="M1000 0V420"/>
<path d="M1100 0V420"/>
<path d="M1200 0V420"/>
<path d="M1300 0V420"/>
<path d="M1400 0V420"/>
<path d="M1500 0V420"/>

</g>

<!-- Accent Line -->

<rect
x="90"
y="70"
rx="4"
width="240"
height="8"
fill="url(#line)"
filter="url(#glow)"
/>

<!-- Name -->

<text
x="90"
y="165"
font-size="72"
font-family="JetBrains Mono, Consolas, monospace"
font-weight="700"
fill="#ffffff">

Abhinav Kumar

</text>

<!-- Subtitle -->

<text
x="90"
y="220"
font-size="28"
font-family="JetBrains Mono"
fill="#7dd3fc">

Software Engineering • Quantitative Finance • Competitive Programming

</text>

<!-- Education -->

<text
x="90"
y="270"
font-size="22"
font-family="JetBrains Mono"
fill="#cbd5e1">

B.Tech @ BIT Mesra • B.Sc.(Hons.) @ IIT Guwahati

</text>

<!-- Right Card -->

<rect
x="980"
y="65"
width="500"
height="285"
rx="18"
fill="#111827"
stroke="#334155"
stroke-width="2"/>

<text
x="1015"
y="115"
font-size="24"
font-family="JetBrains Mono"
fill="#38bdf8">

Profile

</text>

<text
x="1015"
y="155"
font-size="18"
font-family="JetBrains Mono"
fill="#f8fafc">

Languages

</text>

<text
x="1170"
y="155"
font-size="18"
font-family="JetBrains Mono"
fill="#94a3b8">

C++ • Python • Java

</text>

<text
x="1015"
y="195"
font-size="18"
font-family="JetBrains Mono"
fill="#f8fafc">

Focus

</text>

<text
x="1170"
y="195"
font-size="18"
font-family="JetBrains Mono"
fill="#94a3b8">

SDE • Quant • ML

</text>

<text
x="1015"
y="235"
font-size="18"
font-family="JetBrains Mono"
fill="#f8fafc">

Research

</text>

<text
x="1170"
y="235"
font-size="18"
font-family="JetBrains Mono"
fill="#94a3b8">

Hermite Wavelets

</text>

<text
x="1015"
y="275"
font-size="18"
font-family="JetBrains Mono"
fill="#f8fafc">

Learning

</text>

<text
x="1170"
y="275"
font-size="18"
font-family="JetBrains Mono"
fill="#94a3b8">

System Design

</text>

<text
x="1015"
y="315"
font-size="18"
font-family="JetBrains Mono"
fill="#f8fafc">

Status

</text>

<text
x="1170"
y="315"
font-size="18"
font-family="JetBrains Mono"
fill="#22c55e">

Always Building 🚀

</text>

</svg>
