<svg width="1400" height="720"
viewBox="0 0 1400 720"
xmlns="http://www.w3.org/2000/svg">

<defs>

<linearGradient id="panel"
x1="0%" y1="0%"
x2="100%" y2="100%">

<stop offset="0%" stop-color="#1b1d2b" stop-opacity=".92"/>
<stop offset="100%" stop-color="#151720" stop-opacity=".92"/>

</linearGradient>

<linearGradient id="accent"
x1="0%" y1="0%"
x2="100%" y2="0%">

<stop offset="0%" stop-color="#7aa2f7"/>
<stop offset="100%" stop-color="#bb9af7"/>

</linearGradient>

<filter id="shadow">

<feDropShadow
dx="0"
dy="12"
stdDeviation="18"
flood-opacity=".35"/>

</filter>

<style>

.title{
font-family:'JetBrains Mono',monospace;
font-size:34px;
font-weight:700;
fill:#ffffff;
}

.subtitle{
font-family:'JetBrains Mono',monospace;
font-size:18px;
fill:#a9b1d6;
}

.heading{
font-family:'JetBrains Mono',monospace;
font-size:16px;
font-weight:700;
fill:#7aa2f7;
}

.text{
font-family:'JetBrains Mono',monospace;
font-size:16px;
fill:#d5d6db;
}

.small{
font-family:'JetBrains Mono',monospace;
font-size:14px;
fill:#8b93b0;
}

</style>

</defs>

<!-- Background -->

<rect
width="1400"
height="720"
fill="#0f111a"/>

<!-- Main Window -->

<rect

x="60"
y="40"

width="1280"
height="640"

rx="22"

fill="url(#panel)"

stroke="#2a2d3e"

stroke-width="1.5"

filter="url(#shadow)"/>

<!-- Top Bar -->

<rect

x="60"

y="40"

width="1280"

height="48"

rx="22"

fill="#202332"/>

<!-- Fix top radius -->

<rect

x="60"

y="66"

width="1280"

height="22"

fill="#202332"/>

<!-- Window Buttons -->

<circle cx="88" cy="64" r="6" fill="#f7768e"/>
<circle cx="110" cy="64" r="6" fill="#e0af68"/>
<circle cx="132" cy="64" r="6" fill="#9ece6a"/>

<!-- Time -->

<text

x="1240"

y="70"

class="small">

Jul 2026

</text>

<!-- Divider -->

<line

x1="60"

y1="88"

x2="1340"

y2="88"

stroke="#2f3348"/>
<!-- ================= HERO ================= -->

<!-- Name -->

<text
x="110"
y="145"
class="title">

Abhinav Kumar

</text>

<!-- Online -->

<circle
cx="1265"
cy="138"
r="5"
fill="#9ece6a"/>

<text
x="1278"
y="144"
class="small">

ONLINE

</text>

<!-- Subtitle -->

<text
x="110"
y="178"
class="subtitle">

Software Engineering • Quantitative Finance • Competitive Programming

</text>

<!-- Thin Divider -->

<line

x1="110"

y1="210"

x2="1290"

y2="210"

stroke="#2d3144"/>

<!-- ================= LEFT COLUMN ================= -->

<text
x="110"
y="255"
class="heading">

Education

</text>

<text
x="260"
y="255"
class="text">

B.Tech · BIT Mesra

</text>

<text
x="260"
y="285"
class="text">

B.Sc.(Hons.) · IIT Guwahati

</text>

<!-- Languages -->

<text
x="110"
y="345"
class="heading">

Languages

</text>

<text
x="260"
y="345"
class="text">

C++   Python   Java   JavaScript   SQL

</text>

<!-- Research -->

<text
x="110"
y="435"
class="heading">

Research

</text>

<text
x="260"
y="435"
class="text">

Hermite Wavelet Solution

</text>

<text
x="260"
y="463"
class="text">

of Singularly Perturbed BVPs

</text>

<!-- ================= RIGHT COLUMN ================= -->

<text
x="760"
y="255"
class="heading">

Learning

</text>

<text
x="930"
y="255"
class="text">

System Design

</text>

<text
x="930"
y="285"
class="text">

Low Latency Systems

</text>

<text
x="930"
y="315"
class="text">

Machine &amp; Deep Learning

</text>

<!-- Profiles -->

<text
x="760"
y="435"
class="heading">

Profiles

</text>

<text
x="930"
y="435"
class="text">

GitHub

</text>

<text
x="930"
y="465"
class="text">

LinkedIn

</text>

<text
x="930"
y="495"
class="text">

LeetCode

</text>

<text
x="930"
y="525"
class="text">

Codeforces

</text>

<text
x="930"
y="555"
class="text">

CodeChef

</text>
  <!-- ================= FOCUS ================= -->

<text x="760" y="360" class="heading">

Focus

</text>

<!-- Software Engineering -->

<text x="760" y="390" class="small">Software Engineering</text>

<rect
x="965"
y="379"
width="220"
height="10"
rx="5"
fill="#2b3042"/>

<rect
x="965"
y="379"
width="205"
height="10"
rx="5"
fill="url(#accent)"/>

<!-- Competitive Programming -->

<text x="760" y="420" class="small">

Competitive Programming

</text>

<rect
x="965"
y="409"
width="220"
height="10"
rx="5"
fill="#2b3042"/>

<rect
x="965"
y="409"
width="190"
height="10"
rx="5"
fill="#7aa2f7"/>

<!-- Quant -->

<text x="760" y="450" class="small">

Quantitative Finance

</text>

<rect
x="965"
y="439"
width="220"
height="10"
rx="5"
fill="#2b3042"/>

<rect
x="965"
y="439"
width="150"
height="10"
rx="5"
fill="#bb9af7"/>

<!-- ML -->

<text x="760" y="480" class="small">

Machine Learning

</text>

<rect
x="965"
y="469"
width="220"
height="10"
rx="5"
fill="#2b3042"/>

<rect
x="965"
y="469"
width="130"
height="10"
rx="5"
fill="#9ece6a"/>

<!-- ================= LANGUAGE TAGS ================= -->

<rect
x="260"
y="330"
width="52"
height="28"
rx="14"
fill="#24283b"/>

<text
x="277"
y="349"
class="small">

C++

</text>

<rect
x="325"
y="330"
width="78"
height="28"
rx="14"
fill="#24283b"/>

<text
x="340"
y="349"
class="small">

Python

</text>

<rect
x="415"
y="330"
width="58"
height="28"
rx="14"
fill="#24283b"/>

<text
x="430"
y="349"
class="small">

Java

</text>

<rect
x="485"
y="330"
width="95"
height="28"
rx="14"
fill="#24283b"/>

<text
x="500"
y="349"
class="small">

JavaScript

</text>

<rect
x="595"
y="330"
width="48"
height="28"
rx="14"
fill="#24283b"/>

<text
x="610"
y="349"
class="small">

SQL

</text>

<!-- ================= SEPARATORS ================= -->

<line
x1="700"
y1="225"
x2="700"
y2="590"
stroke="#2b3042"/>

<line
x1="110"
y1="380"
x2="650"
y2="380"
stroke="#2b3042"/>

<line
x1="760"
y1="225"
x2="1230"
y2="225"
stroke="#2b3042"/>
  <!-- ================= HEADER TITLE ================= -->

<text
x="170"
y="69"
class="small"
fill="#9aa5ce">

abhinav@github

</text>

<!-- ================= TOP ACCENT ================= -->

<rect
x="110"
y="104"
width="240"
height="4"
rx="2"
fill="url(#accent)"/>

<!-- ================= PROFILE LINKS ================= -->

<rect
x="930"
y="428"
width="88"
height="26"
rx="13"
fill="#24283b"/>

<text
x="952"
y="445"
class="small">

GitHub

</text>

<rect
x="1030"
y="428"
width="95"
height="26"
rx="13"
fill="#24283b"/>

<text
x="1048"
y="445"
class="small">

LinkedIn

</text>

<rect
x="930"
y="465"
width="98"
height="26"
rx="13"
fill="#24283b"/>

<text
x="945"
y="482"
class="small">

LeetCode

</text>

<rect
x="1040"
y="465"
width="110"
height="26"
rx="13"
fill="#24283b"/>

<text
x="1054"
y="482"
class="small">

Codeforces

</text>

<rect
x="930"
y="502"
width="96"
height="26"
rx="13"
fill="#24283b"/>

<text
x="947"
y="519"
class="small">

CodeChef

</text>

<!-- ================= SOFT GLOW ================= -->

<rect

x="75"

y="55"

width="1250"

height="610"

rx="22"

fill="none"

stroke="#7aa2f7"

stroke-opacity=".08"/>

<!-- ================= FOOTER ================= -->

<line

x1="110"

y1="610"

x2="1290"

y2="610"

stroke="#2b3042"/>

<text

x="110"

y="640"

class="small">

Building software • Solving problems • Learning continuously

</text>

<text

x="1235"

y="640"

class="small">

v1.0

</text>
</svg>
