<svg width="900" height="560" viewBox="0 0 900 560" xmlns="http://www.w3.org/2000/svg">

<defs>

<linearGradient id="bg" x1="0%" y1="0%" x2="100%" y2="100%">
<stop offset="0%" stop-color="#1a1b26"/>
<stop offset="100%" stop-color="#16161e"/>
</linearGradient>

<filter id="shadow">
<feDropShadow dx="0" dy="12" stdDeviation="10" flood-color="#000000" flood-opacity="0.45"/>
</filter>

<style>
.title{font:700 20px 'JetBrains Mono',monospace;fill:#ffffff}
.text{font:18px 'JetBrains Mono',monospace;fill:#c0caf5}
.label{font:18px 'JetBrains Mono',monospace;fill:#7aa2f7}
.value{font:18px 'JetBrains Mono',monospace;fill:#9ece6a}
.dim{font:18px 'JetBrains Mono',monospace;fill:#9aa5ce}
</style>

</defs>

<!-- Window -->

<rect
x="20"
y="20"
width="860"
height="520"
rx="18"
fill="url(#bg)"
filter="url(#shadow)"/>

<!-- Header -->

<rect
x="20"
y="20"
width="860"
height="45"
rx="18"
fill="#24283b"/>

<circle cx="48" cy="43" r="7" fill="#f7768e"/>
<circle cx="72" cy="43" r="7" fill="#e0af68"/>
<circle cx="96" cy="43" r="7" fill="#9ece6a"/>

<text x="140" y="48" class="title">
abhinav@github:~$
</text>

<!-- Content -->

<text x="50" y="95" class="label">Education</text>

<text x="70" y="128" class="text">├─ B.Tech @ BIT Mesra, Patna Campus</text>
<text x="70" y="158" class="text">└─ B.Sc.(Hons.) @ IIT Guwahati</text>

<text x="50" y="205" class="label">Languages</text>

<text x="70" y="238" class="text">C++ • Python • Java • JavaScript • SQL</text>

<text x="50" y="285" class="label">Interests</text>

<text x="70" y="318" class="text">Software Engineering</text>
<text x="70" y="348" class="text">Quantitative Finance</text>
<text x="70" y="378" class="text">Competitive Programming</text>
<text x="70" y="408" class="text">Machine &amp; Deep Learning</text>

<!-- Right Column -->

<text x="500" y="95" class="label">Research</text>

<text x="520" y="128" class="text">
Hermite Wavelet Solution
</text>

<text x="520" y="158" class="text">
of Singularly Perturbed
</text>

<text x="520" y="188" class="text">
Boundary Value Problems
</text>

<text x="500" y="245" class="label">Currently Learning</text>

<text x="520" y="278" class="text">
System Design
</text>

<text x="520" y="308" class="text">
Low Latency Systems
</text>

<text x="520" y="338" class="text">
Deep Learning Architectures
</text>

<text x="500" y="395" class="label">Competitive Profiles</text>

<text x="520" y="428" class="text">
LeetCode   : Abhinav1724__
</text>

<text x="520" y="458" class="text">
Codeforces : Abhinav___1024
</text>

<text x="520" y="488" class="text">
CodeChef   : abhinav_2410
</text>

</svg>
